<svg width="110" height="110" viewBox="0 0 110 110" fill="none" xmlns="http://www.w3.org/2000/svg">
<path d="M66 90.5458H13.75C6.15608 90.5458 0 83.3126 0 74.39C0 72.6055 1.23122 71.1588 2.75 71.1588H11V16.1558C11 7.23319 17.1561 0 24.75 0H85.2979C92.8918 0 99.0479 7.23319 99.0479 16.1558V25.9226H101.75C106.306 25.9226 110 30.2626 110 35.6161V100.307C110 105.66 106.306 110 101.75 110H74.25C69.6937 110 66 105.66 66 100.307V90.5458ZM66 84.0835V77.6212H5.96944C7.10199 81.3861 10.1579 84.0835 13.75 84.0835H66ZM66 71.1588V64.6965H24.75C23.2312 64.6965 22 63.2499 22 61.4654V16.2292C22 14.4447 23.2312 12.998 24.75 12.998H85.25C86.7688 12.998 88 14.4447 88 16.2292V25.9226H93.5479V16.1558C93.5479 10.8022 89.8543 6.46231 85.2979 6.46231H24.75C20.1937 6.46231 16.5 10.8022 16.5 16.1558V71.1588H66ZM66 58.2342V35.6161C66 30.2626 69.6937 25.9226 74.25 25.9226H82.5V19.4603H27.5V58.2342H66ZM74.25 32.385C72.7312 32.385 71.5 33.8316 71.5 35.6161V100.307C71.5 102.091 72.7312 103.538 74.25 103.538H101.75C103.269 103.538 104.5 102.091 104.5 100.307V35.6161C104.5 33.8316 103.269 32.385 101.75 32.385H74.25ZM85.25 97.0081C83.7312 97.0081 82.5 95.5614 82.5 93.7769C82.5 91.9924 83.7312 90.5458 85.25 90.5458H90.75C92.2688 90.5458 93.5 91.9924 93.5 93.7769C93.5 95.5614 92.2688 97.0081 90.75 97.0081H85.25Z" fill="white"/>
</svg>
