<svg width="110" height="110" viewBox="0 0 110 110" fill="none" xmlns="http://www.w3.org/2000/svg">
<g clip-path="url(#clip0_66_85)">
<path d="M17.9025 89.3751H11.4583C9.02717 89.3751 6.69559 88.4093 4.97651 86.6902C3.25743 84.9711 2.29166 82.6396 2.29166 80.2084V11.4584C2.29166 9.02726 3.25743 6.69569 4.97651 4.9766C6.69559 3.25752 9.02717 2.29175 11.4583 2.29175H98.5417C100.973 2.29175 103.304 3.25752 105.023 4.9766C106.743 6.69569 107.708 9.02726 107.708 11.4584V80.2084C107.708 82.6396 106.743 84.9711 105.023 86.6902C103.304 88.4093 100.973 89.3751 98.5417 89.3751H91.6117" stroke="white" stroke-width="4" stroke-linecap="round" stroke-linejoin="round"/>
<path d="M2.29166 25.2083H107.708" stroke="white" stroke-width="4" stroke-linecap="round" stroke-linejoin="round"/>
<path d="M18.3333 12.6042C18.56 12.6042 18.7815 12.6715 18.9699 12.7974C19.1584 12.9233 19.3052 13.1022 19.3919 13.3116C19.4787 13.521 19.5014 13.7514 19.4571 13.9736C19.4129 14.1959 19.3038 14.4001 19.1436 14.5603C18.9833 14.7206 18.7791 14.8297 18.5569 14.8739C18.3346 14.9181 18.1042 14.8954 17.8948 14.8087C17.6855 14.722 17.5065 14.5751 17.3806 14.3867C17.2547 14.1982 17.1875 13.9767 17.1875 13.7501C17.1875 13.4462 17.3082 13.1547 17.5231 12.9399C17.738 12.725 18.0294 12.6042 18.3333 12.6042" stroke="white" stroke-width="4" stroke-linecap="round" stroke-linejoin="round"/>
<path d="M32.0833 12.6042C32.31 12.6042 32.5315 12.6715 32.7199 12.7974C32.9084 12.9233 33.0552 13.1022 33.1419 13.3116C33.2287 13.521 33.2514 13.7514 33.2071 13.9736C33.1629 14.1959 33.0538 14.4001 32.8936 14.5603C32.7333 14.7206 32.5291 14.8297 32.3069 14.8739C32.0846 14.9181 31.8542 14.8954 31.6448 14.8087C31.4355 14.722 31.2565 14.5751 31.1306 14.3867C31.0047 14.1982 30.9375 13.9767 30.9375 13.7501C30.9375 13.4462 31.0582 13.1547 31.2731 12.9399C31.488 12.725 31.7794 12.6042 32.0833 12.6042Z" stroke="white" stroke-width="4" stroke-linecap="round" stroke-linejoin="round"/>
<path d="M45.8333 12.6042C46.06 12.6042 46.2815 12.6715 46.4699 12.7974C46.6584 12.9233 46.8052 13.1022 46.8919 13.3116C46.9787 13.521 47.0014 13.7514 46.9571 13.9736C46.9129 14.1959 46.8038 14.4001 46.6436 14.5603C46.4833 14.7206 46.2791 14.8297 46.0569 14.8739C45.8346 14.9181 45.6042 14.8954 45.3948 14.8087C45.1855 14.722 45.0065 14.5751 44.8806 14.3867C44.7547 14.1982 44.6875 13.9767 44.6875 13.7501C44.6875 13.4462 44.8082 13.1547 45.0231 12.9399C45.238 12.725 45.5294 12.6042 45.8333 12.6042Z" stroke="white" stroke-width="4" stroke-linecap="round" stroke-linejoin="round"/>
<path d="M55 107.708C70.1878 107.708 82.5 95.3961 82.5 80.2083C82.5 65.0204 70.1878 52.7083 55 52.7083C39.8122 52.7083 27.5 65.0204 27.5 80.2083C27.5 95.3961 39.8122 107.708 55 107.708Z" stroke="white" stroke-width="4" stroke-linecap="round" stroke-linejoin="round"/>
<path d="M55 52.7083V38.9583" stroke="white" stroke-width="4" stroke-linecap="round" stroke-linejoin="round"/>
<path d="M48.125 38.9583H61.875" stroke="white" stroke-width="4" stroke-linecap="round" stroke-linejoin="round"/>
<path d="M32.0833 52.7083L37.9821 58.607" stroke="white" stroke-width="4" stroke-linecap="round" stroke-linejoin="round"/>
<path d="M77.9167 52.7083L72.0179 58.607" stroke="white" stroke-width="4" stroke-linecap="round" stroke-linejoin="round"/>
<path d="M57.4292 77.7791L64.7213 70.4871" stroke="white" stroke-width="4" stroke-linecap="round" stroke-linejoin="round"/>
<path d="M54.1888 79.3971C54.3491 79.2371 54.5533 79.1283 54.7755 79.0843C54.9977 79.0403 55.2279 79.0632 55.4371 79.15C55.6463 79.2368 55.8251 79.3837 55.9509 79.572C56.0767 79.7604 56.1438 79.9818 56.1438 80.2083C56.1438 80.4348 56.0767 80.6563 55.9509 80.8446C55.8251 81.033 55.6463 81.1799 55.4371 81.2667C55.2279 81.3535 54.9977 81.3763 54.7755 81.3324C54.5533 81.2884 54.3491 81.1795 54.1888 81.0196C53.9755 80.8034 53.8559 80.512 53.8559 80.2083C53.8559 79.9047 53.9755 79.6132 54.1888 79.3971" stroke="white" stroke-width="4" stroke-linecap="round" stroke-linejoin="round"/>
</g>
<defs>
<clipPath id="clip0_66_85">
<rect width="110" height="110" fill="white"/>
</clipPath>
</defs>
</svg>
