<svg width="110" height="110" viewBox="0 0 110 110" fill="none" xmlns="http://www.w3.org/2000/svg">
<path d="M67.5131 14.9038L64.0796 13.8285C63.6377 13.6601 63.2023 13.7131 62.779 13.9869C62.3543 14.2609 62.0675 14.6723 61.9201 15.2204L41.2691 96.872C41.1217 97.4203 41.1679 97.9373 41.4077 98.4215C41.6476 98.9067 42.0069 99.2334 42.4875 99.4018L45.92 100.478C46.3629 100.647 46.7967 100.594 47.2212 100.32C47.6459 100.044 47.9321 99.6344 48.0793 99.0872L68.7309 17.4343C68.8781 16.8862 68.8323 16.3692 68.5921 15.8838C68.352 15.3987 67.9931 15.0719 67.5131 14.9038Z" fill="white"/>
<path d="M36.5648 30.8429C36.5648 30.2949 36.38 29.8095 36.011 29.3882L33.2424 26.2257C32.8734 25.8041 32.4487 25.5928 31.969 25.5928C31.4892 25.5928 31.0643 25.8043 30.6955 26.2257L4.89593 55.6983C4.52633 56.1199 4.34211 56.605 4.34211 57.1531C4.34211 57.7011 4.52691 58.1863 4.89593 58.6076L30.6953 88.0802C31.0642 88.5025 31.4883 88.7125 31.9688 88.7125C32.4493 88.7125 32.8734 88.5018 33.2422 88.0802L36.0108 84.9195C36.3798 84.4982 36.5646 84.0128 36.5646 83.4641C36.5646 82.9167 36.3798 82.4316 36.0108 82.0102L14.2527 57.1531L36.011 32.2977C36.3806 31.8763 36.5648 31.391 36.5648 30.8429Z" fill="white"/>
<path d="M105.104 55.6976L79.3043 26.2249C78.9354 25.8036 78.5106 25.592 78.0316 25.592C77.5511 25.592 77.1277 25.8036 76.7576 26.2249L73.9902 29.3872C73.6213 29.8088 73.4373 30.2933 73.4373 30.842C73.4373 31.3907 73.6211 31.8754 73.9902 32.2967L95.7489 57.1528L73.9902 82.0101C73.6213 82.4315 73.4373 82.9169 73.4373 83.464C73.4373 84.013 73.6211 84.4981 73.9902 84.9194L76.7576 88.0802C77.1277 88.5024 77.5513 88.7124 78.0316 88.7124C78.5108 88.7124 78.9354 88.5017 79.3043 88.0802L105.104 58.6078C105.473 58.1864 105.658 57.7004 105.658 57.1523C105.658 56.6041 105.473 56.1189 105.104 55.6976Z" fill="white"/>
</svg>
