<svg width="110" height="110" viewBox="0 0 110 110" fill="none" xmlns="http://www.w3.org/2000/svg">
<path d="M69.3719 71.999C74.2992 71.999 78.2936 75.8022 78.2936 80.4937L78.288 85.1638C78.8829 95.7899 70.5847 101.167 55.6926 101.167C40.8625 101.167 32.4105 95.8772 32.4105 85.3478V80.4937C32.4105 75.8022 36.4049 71.999 41.3322 71.999H69.3719ZM13.2926 47.7286L35.6019 47.7291C35.1826 49.2804 34.9596 50.9066 34.9596 52.5827C34.9596 57.9974 37.2876 62.8947 41.0427 66.4163L41.8689 67.1498L41.3322 67.1449C39.7959 67.1449 38.3174 67.3804 36.934 67.8148C32.5255 69.2006 29.0848 72.6126 27.8284 76.8929L27.6529 76.8968C12.8228 76.8968 4.37085 71.6068 4.37085 61.0773V56.2232C4.37085 51.5318 8.36523 47.7286 13.2926 47.7286ZM97.4116 47.7286C102.339 47.7286 106.333 51.5318 106.333 56.2232L106.328 60.8934C106.923 71.5194 98.6244 76.8968 83.7323 76.8968L82.8743 76.8885C81.6563 72.7436 78.3894 69.4132 74.1789 67.9502C72.9793 67.5333 71.7033 67.2682 70.3762 67.1784L69.3719 67.1449L68.8351 67.1498C73.0721 63.5917 75.7445 58.3843 75.7445 52.5827C75.7445 50.9066 75.5218 49.2804 75.1022 47.7291L97.4116 47.7286ZM55.3521 38.0204C63.7991 38.0204 70.6464 44.5402 70.6464 52.5827C70.6464 60.6254 63.7991 67.1449 55.3521 67.1449C46.905 67.1449 40.0577 60.6254 40.0577 52.5827C40.0577 44.5402 46.905 38.0204 55.3521 38.0204ZM27.3124 13.75C35.7592 13.75 42.6068 20.2698 42.6068 28.3123C42.6068 36.3547 35.7592 42.8745 27.3124 42.8745C18.8656 42.8745 12.018 36.3547 12.018 28.3123C12.018 20.2698 18.8656 13.75 27.3124 13.75ZM83.3917 13.75C91.8388 13.75 98.6861 20.2698 98.6861 28.3123C98.6861 36.3547 91.8388 42.8745 83.3917 42.8745C74.9447 42.8745 68.0974 36.3547 68.0974 28.3123C68.0974 20.2698 74.9447 13.75 83.3917 13.75Z" fill="white"/>
</svg>
