<svg width="70" height="67" viewBox="0 0 70 67" fill="none" xmlns="http://www.w3.org/2000/svg">
<path d="M0 34.6044L2.5 36.0478L2.5 33.161L0 34.6044ZM70 34.6044L67.5 33.161L67.5 36.0478L70 34.6044ZM2.25 34.8544L67.75 34.8544L67.75 34.3544L2.25 34.3544L2.25 34.8544Z" fill="black"/>
<path d="M10 57.4538L12.8281 56.875L10.9128 54.7152L10 57.4538ZM59.7543 13.3317L56.9262 13.9106L58.8415 16.0704L59.7543 13.3317ZM11.8493 56.148L58.2368 15.0116L57.9051 14.6375L11.5175 55.7739L11.8493 56.148Z" fill="black"/>
<path d="M61.5283 55.7454L60.541 53.0327L58.6854 55.2441L61.5283 55.7454ZM10.5864 13L11.5737 15.7127L13.4293 13.5013L10.5864 13ZM59.9654 54.1076L12.4707 14.2548L12.1493 14.6378L59.644 54.4906L59.9654 54.1076Z" fill="black"/>
<path d="M34.5071 66.9997L35.9579 64.504L33.0711 64.4954L34.5071 66.9997ZM34.6944 4L33.2436 6.4957L36.1303 6.50428L34.6944 4ZM34.7638 64.7505L34.9377 6.25073L34.4377 6.24925L34.2638 64.749L34.7638 64.7505Z" fill="black"/>
<g filter="url(#filter0_dd_16_2)">
<path d="M11.24 46V45.136L13.496 44.752C14.584 44.56 15.416 44.256 15.992 43.84C16.568 43.392 17.016 42.768 17.336 41.968L27.08 18.16L26.072 15.52C26.744 15.488 27.304 15.296 27.752 14.944C28.2 14.56 28.536 14.144 28.76 13.696C28.984 13.216 29.096 12.816 29.096 12.496H29.528L41.24 40.864C41.816 42.272 42.408 43.232 43.016 43.744C43.656 44.224 44.472 44.56 45.464 44.752L47.384 45.136V46H31.592V45.136L34.184 44.704C35.208 44.544 35.912 44.352 36.296 44.128C36.68 43.904 36.872 43.6 36.872 43.216C36.872 42.96 36.808 42.656 36.68 42.304C36.552 41.952 36.408 41.552 36.248 41.104L27.464 18.928H28.568L19.016 42.064C18.92 42.288 18.84 42.512 18.776 42.736C18.712 42.928 18.68 43.104 18.68 43.264C18.68 43.648 18.824 43.936 19.112 44.128C19.432 44.32 19.88 44.464 20.456 44.56L23.576 45.136V46H11.24ZM21.896 35.008L21.56 33.472H35.624V35.008H21.896Z" fill="#8C8C8C"/>
<path d="M11.24 46H10.94V46.3H11.24V46ZM11.24 45.136L11.1897 44.8403L10.94 44.8827V45.136H11.24ZM13.496 44.752L13.5463 45.0478L13.5481 45.0474L13.496 44.752ZM15.992 43.84L16.1678 44.0834L16.1762 44.0768L15.992 43.84ZM17.336 41.968L17.0583 41.8544L17.0575 41.8566L17.336 41.968ZM27.08 18.16L27.3576 18.2736L27.4026 18.1638L27.3603 18.053L27.08 18.16ZM26.072 15.52L26.0577 15.2203L25.644 15.24L25.7917 15.627L26.072 15.52ZM27.752 14.944L27.9375 15.1801L27.9472 15.1718L27.752 14.944ZM28.76 13.696L29.0284 13.8302L29.0319 13.8229L28.76 13.696ZM29.096 12.496V12.196H28.796V12.496H29.096ZM29.528 12.496L29.8053 12.3815L29.7287 12.196H29.528V12.496ZM41.24 40.864L41.5177 40.7504L41.5173 40.7495L41.24 40.864ZM43.016 43.744L42.8228 43.9735L42.8292 43.9789L42.836 43.984L43.016 43.744ZM45.464 44.752L45.5228 44.4578L45.521 44.4575L45.464 44.752ZM47.384 45.136H47.684V44.8901L47.4428 44.8418L47.384 45.136ZM47.384 46V46.3H47.684V46H47.384ZM31.592 46H31.292V46.3H31.592V46ZM31.592 45.136L31.5427 44.8401L31.292 44.8819V45.136H31.592ZM34.184 44.704L34.1377 44.4076L34.1347 44.4081L34.184 44.704ZM36.296 44.128L36.1448 43.8689L36.1448 43.8689L36.296 44.128ZM36.68 42.304L36.9619 42.2015L36.9619 42.2015L36.68 42.304ZM36.248 41.104L36.5307 41.003L36.5269 40.9935L36.248 41.104ZM27.464 18.928V18.628H27.0225L27.1851 19.0385L27.464 18.928ZM28.568 18.928L28.8453 19.0425L29.0164 18.628H28.568V18.928ZM19.016 42.064L19.2918 42.1822L19.2933 42.1785L19.016 42.064ZM18.776 42.736L19.0609 42.831L19.0645 42.8184L18.776 42.736ZM19.112 44.128L18.9456 44.3776L18.9515 44.3816L18.9577 44.3852L19.112 44.128ZM20.456 44.56L20.5105 44.2649L20.5053 44.2641L20.456 44.56ZM23.576 45.136H23.876V44.8863L23.6305 44.841L23.576 45.136ZM23.576 46V46.3H23.876V46H23.576ZM21.896 35.008L21.6029 35.0721L21.6545 35.308H21.896V35.008ZM21.56 33.472V33.172H21.1873L21.2669 33.5361L21.56 33.472ZM35.624 33.472H35.924V33.172H35.624V33.472ZM35.624 35.008V35.308H35.924V35.008H35.624ZM11.54 46V45.136H10.94V46H11.54ZM11.2903 45.4317L13.5463 45.0477L13.4457 44.4563L11.1897 44.8403L11.2903 45.4317ZM13.5481 45.0474C14.6584 44.8515 15.5402 44.5364 16.1676 44.0832L15.8164 43.5968C15.2918 43.9756 14.5096 44.2685 13.4439 44.4566L13.5481 45.0474ZM16.1762 44.0768C16.8012 43.5906 17.2784 42.9198 17.6145 42.0794L17.0575 41.8566C16.7536 42.6162 16.3348 43.1934 15.8078 43.6032L16.1762 44.0768ZM17.6136 42.0816L27.3576 18.2736L26.8024 18.0464L17.0584 41.8544L17.6136 42.0816ZM27.3603 18.053L26.3523 15.413L25.7917 15.627L26.7997 18.267L27.3603 18.053ZM26.0863 15.8197C26.809 15.7852 27.432 15.577 27.9373 15.1799L27.5667 14.7081C27.176 15.015 26.679 15.1908 26.0577 15.2203L26.0863 15.8197ZM27.9472 15.1718C28.4203 14.7663 28.7836 14.3197 29.0283 13.8302L28.4917 13.5618C28.2884 13.9683 27.9797 14.3537 27.5568 14.7162L27.9472 15.1718ZM29.0319 13.8229C29.2638 13.3259 29.396 12.8795 29.396 12.496H28.796C28.796 12.7525 28.7042 13.1061 28.4881 13.5691L29.0319 13.8229ZM29.096 12.796H29.528V12.196H29.096V12.796ZM29.2507 12.6105L40.9627 40.9785L41.5173 40.7495L29.8053 12.3815L29.2507 12.6105ZM40.9623 40.9776C41.5428 42.3965 42.1572 43.413 42.8228 43.9735L43.2092 43.5145C42.6588 43.051 42.0892 42.1475 41.5177 40.7504L40.9623 40.9776ZM42.836 43.984C43.5206 44.4975 44.3818 44.8481 45.407 45.0465L45.521 44.4575C44.5622 44.2719 43.7914 43.9505 43.196 43.504L42.836 43.984ZM45.4052 45.0462L47.3252 45.4302L47.4428 44.8418L45.5228 44.4578L45.4052 45.0462ZM47.084 45.136V46H47.684V45.136H47.084ZM47.384 45.7H31.592V46.3H47.384V45.7ZM31.892 46V45.136H31.292V46H31.892ZM31.6413 45.4319L34.2333 44.9999L34.1347 44.4081L31.5427 44.8401L31.6413 45.4319ZM34.2303 45.0004C35.255 44.8403 36.0097 44.6423 36.4472 44.3871L36.1448 43.8689C35.8143 44.0617 35.161 44.2477 34.1377 44.4076L34.2303 45.0004ZM36.4472 44.3871C36.906 44.1195 37.172 43.7253 37.172 43.216H36.572C36.572 43.4747 36.454 43.6885 36.1448 43.8689L36.4472 44.3871ZM37.172 43.216C37.172 42.9129 37.0969 42.5725 36.9619 42.2015L36.3981 42.4065C36.5191 42.7395 36.572 43.0071 36.572 43.216H37.172ZM36.9619 42.2015C36.8342 41.8501 36.6904 41.4507 36.5305 41.0031L35.9655 41.2049C36.1256 41.6533 36.2698 42.0539 36.3981 42.4065L36.9619 42.2015ZM36.5269 40.9935L27.7429 18.8175L27.1851 19.0385L35.9691 41.2145L36.5269 40.9935ZM27.464 19.228H28.568V18.628H27.464V19.228ZM28.2907 18.8135L18.7387 41.9495L19.2933 42.1785L28.8453 19.0425L28.2907 18.8135ZM18.7403 41.9458C18.6395 42.1809 18.5552 42.4169 18.4875 42.6536L19.0645 42.8184C19.1248 42.6071 19.2005 42.3951 19.2917 42.1822L18.7403 41.9458ZM18.4914 42.6411C18.4198 42.856 18.38 43.0645 18.38 43.264H18.98C18.98 43.1435 19.0042 43 19.0606 42.8309L18.4914 42.6411ZM18.38 43.264C18.38 43.7354 18.5639 44.1232 18.9456 44.3776L19.2784 43.8784C19.0841 43.7488 18.98 43.5606 18.98 43.264H18.38ZM18.9577 44.3852C19.3229 44.6044 19.8122 44.7568 20.4067 44.8559L20.5053 44.2641C19.9478 44.1712 19.5411 44.0356 19.2663 43.8708L18.9577 44.3852ZM20.4015 44.855L23.5215 45.431L23.6305 44.841L20.5105 44.265L20.4015 44.855ZM23.276 45.136V46H23.876V45.136H23.276ZM23.576 45.7H11.24V46.3H23.576V45.7ZM22.1891 34.9439L21.8531 33.4079L21.2669 33.5361L21.6029 35.0721L22.1891 34.9439ZM21.56 33.772H35.624V33.172H21.56V33.772ZM35.324 33.472V35.008H35.924V33.472H35.324ZM35.624 34.708H21.896V35.308H35.624V34.708Z" fill="black"/>
</g>
<g filter="url(#filter1_d_16_2)">
<path d="M42.824 57.384C40.2 57.384 37.944 57.048 36.056 56.376C34.2 55.672 32.728 55.032 31.64 54.456C31.896 53.048 32.008 51.624 31.976 50.184C31.976 48.712 31.784 47.224 31.4 45.72H32.792C33.048 47.704 33.592 49.496 34.424 51.096C35.288 52.664 36.44 53.912 37.88 54.84C39.32 55.768 41.064 56.232 43.112 56.232C44.488 56.232 45.704 55.976 46.76 55.464C47.848 54.92 48.696 54.184 49.304 53.256C49.944 52.328 50.264 51.256 50.264 50.04C50.264 48.792 50.008 47.768 49.496 46.968C49.016 46.136 48.152 45.384 46.904 44.712C45.656 44.008 43.864 43.256 41.528 42.456C38.68 41.464 36.472 40.312 34.904 39C33.368 37.656 32.6 35.752 32.6 33.288C32.6 31.656 32.984 30.152 33.752 28.776C34.52 27.368 35.672 26.248 37.208 25.416C38.744 24.552 40.648 24.12 42.92 24.12C43.912 24.12 44.76 24.248 45.464 24.504C46.168 24.76 46.824 25.032 47.432 25.32C47.912 25.544 48.376 25.752 48.824 25.944C49.272 26.136 49.72 26.232 50.168 26.232L51.368 25.992L51.56 26.136C51.528 26.552 51.496 26.952 51.464 27.336C51.432 27.72 51.416 28.104 51.416 28.488C51.416 29.16 51.448 29.832 51.512 30.504C51.576 31.144 51.672 31.784 51.8 32.424C51.928 33.064 52.072 33.704 52.232 34.344H51.176C50.536 32.68 49.848 31.176 49.112 29.832C48.376 28.456 47.464 27.368 46.376 26.568C45.32 25.736 43.96 25.32 42.296 25.32C41.24 25.32 40.248 25.544 39.32 25.992C38.392 26.44 37.64 27.096 37.064 27.96C36.488 28.824 36.2 29.88 36.2 31.128C36.2 32.344 36.408 33.352 36.824 34.152C37.24 34.92 38.024 35.624 39.176 36.264C40.36 36.872 42.088 37.576 44.36 38.376C46.728 39.176 48.6 40.024 49.976 40.92C51.352 41.784 52.328 42.776 52.904 43.896C53.512 45.016 53.816 46.376 53.816 47.976C53.816 49.736 53.352 51.336 52.424 52.776C51.496 54.184 50.2 55.304 48.536 56.136C46.904 56.968 45 57.384 42.824 57.384Z" fill="black"/>
<path d="M36.056 56.376L35.8786 56.8436L35.8883 56.8471L36.056 56.376ZM31.64 54.456L31.1481 54.3666L31.0826 54.7266L31.4061 54.8979L31.64 54.456ZM31.976 50.184H31.4759L31.4761 50.1951L31.976 50.184ZM31.4 45.72V45.22H30.7563L30.9155 45.8437L31.4 45.72ZM32.792 45.72L33.2879 45.656L33.2316 45.22H32.792V45.72ZM34.424 51.096L33.9803 51.3267L33.9861 51.3373L34.424 51.096ZM37.88 54.84L38.1509 54.4197L38.1509 54.4197L37.88 54.84ZM46.76 55.464L46.9782 55.9139L46.9836 55.9112L46.76 55.464ZM49.304 53.256L48.8923 52.9721L48.8858 52.982L49.304 53.256ZM49.496 46.968L49.0629 47.2179L49.0687 47.2278L49.0749 47.2375L49.496 46.968ZM46.904 44.712L46.6583 45.1476L46.667 45.1522L46.904 44.712ZM41.528 42.456L41.3635 42.9282L41.366 42.929L41.528 42.456ZM34.904 39L34.5747 39.3764L34.5831 39.3835L34.904 39ZM33.752 28.776L34.1886 29.0197L34.1909 29.0154L33.752 28.776ZM37.208 25.416L37.4462 25.8557L37.4531 25.8518L37.208 25.416ZM45.464 24.504L45.6349 24.0341L45.6349 24.0341L45.464 24.504ZM47.432 25.32L47.218 25.7719L47.2206 25.7731L47.432 25.32ZM48.824 25.944L48.627 26.4036L48.627 26.4036L48.824 25.944ZM50.168 26.232V26.732H50.2175L50.2661 26.7223L50.168 26.232ZM51.368 25.992L51.668 25.592L51.4892 25.4579L51.2699 25.5017L51.368 25.992ZM51.56 26.136L52.0585 26.1743L52.0796 25.9007L51.86 25.736L51.56 26.136ZM51.464 27.336L51.9623 27.3775L51.9623 27.3775L51.464 27.336ZM51.512 30.504L51.0142 30.5514L51.0145 30.5537L51.512 30.504ZM51.8 32.424L52.2903 32.3259L52.2903 32.3259L51.8 32.424ZM52.232 34.344V34.844H52.8724L52.7171 34.2227L52.232 34.344ZM51.176 34.344L50.7093 34.5235L50.8326 34.844H51.176V34.344ZM49.112 29.832L48.6711 30.0678L48.6735 30.0722L49.112 29.832ZM46.376 26.568L46.0666 26.9607L46.0731 26.9659L46.0798 26.9708L46.376 26.568ZM39.32 25.992L39.1026 25.5417L39.1026 25.5417L39.32 25.992ZM37.064 27.96L37.48 28.2373L37.48 28.2373L37.064 27.96ZM36.824 34.152L36.3803 34.3827L36.3844 34.3901L36.824 34.152ZM39.176 36.264L38.9332 36.7011L38.9403 36.705L38.9476 36.7088L39.176 36.264ZM44.36 38.376L44.1939 38.8477L44.2 38.8497L44.36 38.376ZM49.976 40.92L49.7031 41.3391L49.7101 41.3434L49.976 40.92ZM52.904 43.896L52.4592 44.1247L52.4646 44.1345L52.904 43.896ZM52.424 52.776L52.8415 53.0512L52.8443 53.0469L52.424 52.776ZM48.536 56.136L48.3124 55.6888L48.3089 55.6905L48.536 56.136ZM42.824 56.884C40.2404 56.884 38.0441 56.5529 36.2237 55.9049L35.8883 56.8471C37.8439 57.5431 40.1596 57.884 42.824 57.884V56.884ZM36.2333 55.9085C34.3865 55.208 32.936 54.5764 31.8739 54.0141L31.4061 54.8979C32.52 55.4876 34.0135 56.136 35.8787 56.8435L36.2333 55.9085ZM32.1319 54.5454C32.394 53.1041 32.5086 51.6464 32.4759 50.1729L31.4761 50.1951C31.5074 51.6016 31.398 52.9919 31.1481 54.3666L32.1319 54.5454ZM32.476 50.184C32.476 48.6681 32.2782 47.1385 31.8845 45.5963L30.9155 45.8437C31.2898 47.3095 31.476 48.7559 31.476 50.184H32.476ZM31.4 46.22H32.792V45.22H31.4V46.22ZM32.2961 45.784C32.5588 47.8199 33.1185 49.6692 33.9804 51.3267L34.8676 50.8653C34.0655 49.3228 33.5372 47.5881 33.2879 45.656L32.2961 45.784ZM33.9861 51.3373C34.8882 52.9745 36.0963 54.2853 37.6091 55.2603L38.1509 54.4197C36.7837 53.5387 35.6878 52.3535 34.8619 50.8547L33.9861 51.3373ZM37.6091 55.2603C39.1445 56.2497 40.9869 56.732 43.112 56.732V55.732C41.1411 55.732 39.4955 55.2863 38.1509 54.4197L37.6091 55.2603ZM43.112 56.732C44.5506 56.732 45.8434 56.4641 46.9781 55.9139L46.5419 55.0141C45.5646 55.4879 44.4254 55.732 43.112 55.732V56.732ZM46.9836 55.9112C48.1428 55.3316 49.0612 54.5389 49.7222 53.53L48.8858 52.982C48.3308 53.8291 47.5532 54.5084 46.5364 55.0168L46.9836 55.9112ZM49.7156 53.5399C50.4178 52.5217 50.764 51.349 50.764 50.04H49.764C49.764 51.163 49.4702 52.1343 48.8924 52.9721L49.7156 53.5399ZM50.764 50.04C50.764 48.7259 50.4945 47.6006 49.9171 46.6985L49.0749 47.2375C49.5215 47.9354 49.764 48.8581 49.764 50.04H50.764ZM49.9291 46.7181C49.3856 45.7761 48.4344 44.9682 47.1411 44.2718L46.667 45.1522C47.8696 45.7998 48.6464 46.4959 49.0629 47.2179L49.9291 46.7181ZM47.1497 44.2765C45.8626 43.5505 44.0374 42.7869 41.69 41.983L41.366 42.929C43.6906 43.7251 45.4494 44.4655 46.6583 45.1475L47.1497 44.2765ZM41.6925 41.9838C38.8769 41.0031 36.73 39.876 35.2249 38.6165L34.5831 39.3835C36.214 40.748 38.4831 41.9249 41.3635 42.9282L41.6925 41.9838ZM35.2333 38.6237C33.8281 37.3942 33.1 35.6404 33.1 33.288H32.1C32.1 35.8636 32.9079 37.9178 34.5747 39.3763L35.2333 38.6237ZM33.1 33.288C33.1 31.7381 33.4637 30.3185 34.1886 29.0197L33.3154 28.5323C32.5043 29.9855 32.1 31.5739 32.1 33.288H33.1ZM34.1909 29.0154C34.9086 27.6997 35.9871 26.6459 37.4461 25.8556L36.9699 24.9764C35.3569 25.85 34.1314 27.0363 33.3131 28.5366L34.1909 29.0154ZM37.4531 25.8518C38.8957 25.0404 40.7096 24.62 42.92 24.62V23.62C40.5864 23.62 38.5923 24.0636 36.9629 24.9802L37.4531 25.8518ZM42.92 24.62C43.8715 24.62 44.6584 24.7431 45.2931 24.9739L45.6349 24.0341C44.8616 23.7529 43.9525 23.62 42.92 23.62V24.62ZM45.2931 24.9739C45.9841 25.2252 46.6255 25.4912 47.218 25.7719L47.646 24.8681C47.0225 24.5728 46.3519 24.2948 45.6349 24.0341L45.2931 24.9739ZM47.2206 25.7731C47.7049 25.9991 48.1738 26.2093 48.627 26.4036L49.021 25.4844C48.5782 25.2947 48.1191 25.0889 47.6434 24.8669L47.2206 25.7731ZM48.627 26.4036C49.1318 26.6199 49.6465 26.732 50.168 26.732V25.732C49.7935 25.732 49.4122 25.6521 49.021 25.4844L48.627 26.4036ZM50.2661 26.7223L51.4661 26.4823L51.2699 25.5017L50.0699 25.7417L50.2661 26.7223ZM51.068 26.392L51.26 26.536L51.86 25.736L51.668 25.592L51.068 26.392ZM51.0615 26.0977C51.0295 26.5127 50.9976 26.9116 50.9657 27.2945L51.9623 27.3775C51.9944 26.9924 52.0265 26.5913 52.0585 26.1743L51.0615 26.0977ZM50.9657 27.2945C50.9326 27.6922 50.916 28.0901 50.916 28.488H51.916C51.916 28.1179 51.9314 27.7478 51.9623 27.3775L50.9657 27.2945ZM50.916 28.488C50.916 29.1759 50.9488 29.8637 51.0143 30.5514L52.0097 30.4566C51.9472 29.8003 51.916 29.1441 51.916 28.488H50.916ZM51.0145 30.5537C51.0801 31.2102 51.1786 31.8663 51.3097 32.5221L52.2903 32.3259C52.1654 31.7017 52.0719 31.0778 52.0095 30.4542L51.0145 30.5537ZM51.3097 32.5221C51.4393 33.1699 51.585 33.8177 51.7469 34.4653L52.7171 34.2227C52.559 33.5903 52.4167 32.9581 52.2903 32.3259L51.3097 32.5221ZM52.232 33.844H51.176V34.844H52.232V33.844ZM51.6427 34.1645C50.9959 32.483 50.2988 30.9583 49.5505 29.5918L48.6735 30.0722C49.3972 31.3937 50.0761 32.877 50.7093 34.5235L51.6427 34.1645ZM49.5529 29.5962C48.7872 28.1646 47.829 27.0157 46.6722 26.1652L46.0798 26.9708C47.099 27.7203 47.9648 28.7474 48.6711 30.0678L49.5529 29.5962ZM46.6854 26.1753C45.5219 25.2586 44.0449 24.82 42.296 24.82V25.82C43.8751 25.82 45.1181 26.2134 46.0666 26.9607L46.6854 26.1753ZM42.296 24.82C41.1666 24.82 40.1001 25.0602 39.1026 25.5417L39.5374 26.4423C40.3959 26.0278 41.3134 25.82 42.296 25.82V24.82ZM39.1026 25.5417C38.0935 26.0289 37.2731 26.7449 36.648 27.6826L37.48 28.2373C38.0069 27.4471 38.6905 26.8511 39.5374 26.4423L39.1026 25.5417ZM36.648 27.6826C36.007 28.6441 35.7 29.8015 35.7 31.128H36.7C36.7 29.9585 36.969 29.0039 37.48 28.2373L36.648 27.6826ZM35.7 31.128C35.7 32.3976 35.9167 33.491 36.3804 34.3827L37.2676 33.9213C36.8993 33.213 36.7 32.2904 36.7 31.128H35.7ZM36.3844 34.3901C36.8632 35.2742 37.7374 36.0368 38.9332 36.7011L39.4188 35.8269C38.3106 35.2112 37.6168 34.5658 37.2636 33.9139L36.3844 34.3901ZM38.9476 36.7088C40.1617 37.3323 41.9147 38.0451 44.1939 38.8476L44.5261 37.9044C42.2613 37.1069 40.5583 36.4117 39.4044 35.8192L38.9476 36.7088ZM44.2 38.8497C46.5466 39.6425 48.3755 40.4745 49.7032 41.339L50.2488 40.501C48.8245 39.5735 46.9094 38.7095 44.52 37.9023L44.2 38.8497ZM49.7101 41.3434C51.0317 42.1733 51.9347 43.1044 52.4594 44.1247L53.3486 43.6673C52.7213 42.4476 51.6723 41.3947 50.2419 40.4966L49.7101 41.3434ZM52.4646 44.1345C53.0239 45.1649 53.316 46.4384 53.316 47.976H54.316C54.316 46.3136 54.0001 44.8671 53.3434 43.6575L52.4646 44.1345ZM53.316 47.976C53.316 49.6427 52.8782 51.1482 52.0037 52.5051L52.8443 53.0469C53.8258 51.5238 54.316 49.8293 54.316 47.976H53.316ZM52.0065 52.5008C51.1318 53.828 49.9061 54.8919 48.3124 55.6888L48.7596 56.5832C50.4939 55.7161 51.8602 54.54 52.8415 53.0512L52.0065 52.5008ZM48.3089 55.6905C46.7593 56.4805 44.9358 56.884 42.824 56.884V57.884C45.0642 57.884 47.0487 57.4555 48.7631 56.5815L48.3089 55.6905Z" fill="black"/>
</g>
<g filter="url(#filter2_i_16_2)">
<path d="M62.85 35.5C62.85 48.9299 50.4006 59.85 35 59.85C19.5994 59.85 7.15 48.9299 7.15 35.5C7.15 22.0701 19.5994 11.15 35 11.15C50.4006 11.15 62.85 22.0701 62.85 35.5Z" stroke="#152D49" stroke-width="0.3"/>
</g>
<g filter="url(#filter3_i_16_2)">
<path d="M31.755 8.2747L35.0003 8.12306L38.2456 8.2747L41.4541 8.72777L44.5895 9.4768L47.6164 10.5127L50.501 11.8231L53.2111 13.3923L55.7171 15.2016L57.9919 17.2297L60.0114 19.4531L61.7547 21.8465L63.2043 24.383L64.346 27.0348L65.1691 29.7733L65.6659 32.5699L65.832 35.3956L65.6659 38.2213L65.1691 41.0179L64.3461 43.7564L63.2043 46.4083L61.7547 48.9447L60.0114 51.3381L57.9919 53.5615L55.7171 55.5896L53.2111 57.3989L50.501 58.9681L47.6164 60.2785L44.5895 61.3144L41.4541 62.0634L38.2456 62.5165L35.0003 62.6681L31.755 62.5165L28.5465 62.0634L25.4111 61.3144L22.3842 60.2785L19.4996 58.9681L16.7894 57.3989L14.2834 55.5896L12.0086 53.5615L9.98914 51.3381L8.24584 48.9447L6.79626 46.4082L5.65454 43.7565L4.83148 41.0179L4.33467 38.2213L4.16858 35.3956L4.33467 32.57L4.83148 29.7733L5.65454 27.0347L6.79625 24.383L8.24584 21.8465L9.98914 19.4531L12.0086 17.2297L14.2834 15.2016L16.7894 13.3923L19.4996 11.8231L22.3841 10.5127L25.4111 9.4768L28.5465 8.72777L31.755 8.2747Z" stroke="#152D49" stroke-width="4"/>
</g>
<defs>
<filter id="filter0_dd_16_2" x="7.24" y="12.496" width="44.144" height="41.504" filterUnits="userSpaceOnUse" color-interpolation-filters="sRGB">
<feFlood flood-opacity="0" result="BackgroundImageFix"/>
<feColorMatrix in="SourceAlpha" type="matrix" values="0 0 0 0 0 0 0 0 0 0 0 0 0 0 0 0 0 0 127 0" result="hardAlpha"/>
<feOffset dy="4"/>
<feGaussianBlur stdDeviation="2"/>
<feComposite in2="hardAlpha" operator="out"/>
<feColorMatrix type="matrix" values="0 0 0 0 0 0 0 0 0 0 0 0 0 0 0 0 0 0 0.25 0"/>
<feBlend mode="normal" in2="BackgroundImageFix" result="effect1_dropShadow_16_2"/>
<feColorMatrix in="SourceAlpha" type="matrix" values="0 0 0 0 0 0 0 0 0 0 0 0 0 0 0 0 0 0 127 0" result="hardAlpha"/>
<feOffset dy="4"/>
<feGaussianBlur stdDeviation="2"/>
<feComposite in2="hardAlpha" operator="out"/>
<feColorMatrix type="matrix" values="0 0 0 0 0 0 0 0 0 0 0 0 0 0 0 0 0 0 0.25 0"/>
<feBlend mode="normal" in2="effect1_dropShadow_16_2" result="effect2_dropShadow_16_2"/>
<feBlend mode="normal" in="SourceGraphic" in2="effect2_dropShadow_16_2" result="shape"/>
</filter>
<filter id="filter1_d_16_2" x="27.4" y="24.12" width="30.416" height="41.264" filterUnits="userSpaceOnUse" color-interpolation-filters="sRGB">
<feFlood flood-opacity="0" result="BackgroundImageFix"/>
<feColorMatrix in="SourceAlpha" type="matrix" values="0 0 0 0 0 0 0 0 0 0 0 0 0 0 0 0 0 0 127 0" result="hardAlpha"/>
<feOffset dy="4"/>
<feGaussianBlur stdDeviation="2"/>
<feComposite in2="hardAlpha" operator="out"/>
<feColorMatrix type="matrix" values="0 0 0 0 0 0 0 0 0 0 0 0 0 0 0 0 0 0 0.25 0"/>
<feBlend mode="normal" in2="BackgroundImageFix" result="effect1_dropShadow_16_2"/>
<feBlend mode="normal" in="SourceGraphic" in2="effect1_dropShadow_16_2" result="shape"/>
</filter>
<filter id="filter2_i_16_2" x="7" y="11" width="56" height="53" filterUnits="userSpaceOnUse" color-interpolation-filters="sRGB">
<feFlood flood-opacity="0" result="BackgroundImageFix"/>
<feBlend mode="normal" in="SourceGraphic" in2="BackgroundImageFix" result="shape"/>
<feColorMatrix in="SourceAlpha" type="matrix" values="0 0 0 0 0 0 0 0 0 0 0 0 0 0 0 0 0 0 127 0" result="hardAlpha"/>
<feOffset dy="4"/>
<feGaussianBlur stdDeviation="2"/>
<feComposite in2="hardAlpha" operator="arithmetic" k2="-1" k3="1"/>
<feColorMatrix type="matrix" values="0 0 0 0 0 0 0 0 0 0 0 0 0 0 0 0 0 0 0.25 0"/>
<feBlend mode="normal" in2="shape" result="effect1_innerShadow_16_2"/>
</filter>
<filter id="filter3_i_16_2" x="2.16512" y="6.12088" width="65.6703" height="62.5495" filterUnits="userSpaceOnUse" color-interpolation-filters="sRGB">
<feFlood flood-opacity="0" result="BackgroundImageFix"/>
<feBlend mode="normal" in="SourceGraphic" in2="BackgroundImageFix" result="shape"/>
<feColorMatrix in="SourceAlpha" type="matrix" values="0 0 0 0 0 0 0 0 0 0 0 0 0 0 0 0 0 0 127 0" result="hardAlpha"/>
<feOffset dy="4"/>
<feGaussianBlur stdDeviation="2"/>
<feComposite in2="hardAlpha" operator="arithmetic" k2="-1" k3="1"/>
<feColorMatrix type="matrix" values="0 0 0 0 0 0 0 0 0 0 0 0 0 0 0 0 0 0 0.25 0"/>
<feBlend mode="normal" in2="shape" result="effect1_innerShadow_16_2"/>
</filter>
</defs>
</svg>
